# Aspose.3D Wavefront OBJ Exporter
# Copyright 2004-2022 Aspose Pty Ltd.
# File created: 05/11/2022 03:56:44


#
# object obj_38518416
#

v -3.3261396310990676E-05 -0.00889993738383054 -0.0101500004529953
v -0.00163325015455484 -0.00889395829290151 -0.0101500004529953
v -0.00163281115237623 -0.00877649523317813 -0.01089164055883884
v -3.2822405046317726E-05 -0.00878247432410717 -0.01089164055883884
v -0.00163153721950948 -0.00843560229986906 -0.01156068500131368
v -3.1548403057968244E-05 -0.00844158232212066 -0.01156068500131368
v -0.00162955292034894 -0.00790464971214532 -0.01209164038300514
v -2.9564096621470526E-05 -0.00791062973439693 -0.01209164038300514
v -0.00162705255206674 -0.00723561039194464 -0.01243253517895937
v -2.7063724701292813E-05 -0.00724158994853496 -0.01243253517895937
v -0.00162428081966936 -0.00649397494271397 -0.01255000010132789
v -2.429204323561862E-05 -0.00649995496496558 -0.01255000010132789
v -2.429204323561862E-05 -0.00649995496496558 0.01255000010132789
v -0.00162428081966936 -0.00649397494271397 0.01255000010132789
v -0.00162705255206674 -0.00723561039194464 0.01243253517895937
v -2.7063724701292813E-05 -0.00724158994853496 0.01243253517895937
v -0.00162955292034894 -0.00790464971214532 0.01209164038300514
v -2.9564096621470526E-05 -0.00791062973439693 0.01209164038300514
v -0.00163153721950948 -0.00843560229986906 0.01156068500131368
v -3.1548403057968244E-05 -0.00844158232212066 0.01156068500131368
v -0.00163281115237623 -0.00877649523317813 0.01089164055883884
v -3.2822405046317726E-05 -0.00878247432410717 0.01089164055883884
v -0.00163325015455484 -0.00889395829290151 0.0101500004529953
v -3.3261396310990676E-05 -0.00889993738383054 0.0101500004529953
v 3.326131627545692E-05 0.00889993738383054 0.0101500004529953
v -0.00156672752927988 0.00890591740608215 0.0101500004529953
v -0.00156716641504317 0.00878845434635877 0.01089164055883884
v 3.282232501078397E-05 0.00878247432410717 0.01089164055883884
v -0.00156844046432524 0.00844756141304969 0.01156068500131368
v 3.154832302243449E-05 0.00844158232212066 0.01156068500131368
v -0.00157042476348578 0.00791660882532596 0.01209164038300514
v 2.9564014766947366E-05 0.00791062973439693 0.01209164038300514
v -0.00157292513176798 0.00724756950512528 0.01243253517895937
v 2.7063642846769653E-05 0.00724158994853496 0.01243253517895937
v -0.00157569686416536 0.0065059345215559 0.01255000010132789
v 2.429196138109546E-05 0.00649995496496558 0.01255000010132789
v -0.00156672752927988 0.00890591740608215 -0.0101500004529953
v 3.326131627545692E-05 0.00889993738383054 -0.0101500004529953
v 3.282232501078397E-05 0.00878247432410717 -0.01089164055883884
v -0.00156716641504317 0.00878845434635877 -0.01089164055883884
v 3.154832302243449E-05 0.00844158232212066 -0.01156068500131368
v -0.00156844046432524 0.00844756141304969 -0.01156068500131368
v 2.9564014766947366E-05 0.00791062973439693 -0.01209164038300514
v -0.00157042476348578 0.00791660882532596 -0.01209164038300514
v 2.7063642846769653E-05 0.00724158994853496 -0.01243253517895937
v -0.00157292513176798 0.00724756950512528 -0.01243253517895937
v 2.429196138109546E-05 0.00649995496496558 -0.01255000010132789
v -0.00157569686416536 0.0065059345215559 -0.01255000010132789
v -2.1183868739171885E-05 -0.00566828250885009 0.011137580499053
v 2.2141086446936242E-05 0.00592443253844976 0.00902798026800155
v 2.037454760284163E-05 0.00545174907892942 0.00935425236821174
v -2.821613452397287E-05 -0.00754994759336113 -0.0101500004529953
v -2.8085816666134633E-05 -0.00751507747918367 -0.00986282154917717
v -1.9760471332119778E-05 -0.00528741581365466 0.01070766802877187
v -1.924677962961141E-05 -0.00514996424317359 0.0101500004529953
v 2.4271945221698843E-05 0.00649459892883896 0.00895874947309494
v 2.6278963559889235E-05 0.00703162886202335 -0.00916241947561502
v -2.1183868739171885E-05 -0.00566828250885009 -0.00916241947561502
v 2.2141086446936242E-05 0.00592443253844976 -0.01127201970666647
v 2.037454760284163E-05 0.00545174907892942 -0.01094574760645628
v -2.7088286515208893E-05 -0.00724816229194402 -0.00935425236821174
v -2.5321745852124877E-05 -0.0067754783667624 -0.00902798026800155
v -2.7088286515208893E-05 -0.00724816229194402 0.00935425236821174
v 1.9377015632926486E-05 0.00518483342602849 -0.01043717842549085
v 1.9246699594077654E-05 0.00514996424317359 -0.0101500004529953
v -2.3190890715341084E-05 -0.00620531290769577 -0.00895874947309494
v -2.3190890715341084E-05 -0.00620531290769577 0.00895874947309494
v -2.5321745852124877E-05 -0.0067754783667624 0.00902798026800155
v -2.5321745852124877E-05 -0.0067754783667624 0.01127201970666647
v -2.7088286515208893E-05 -0.00724816229194402 0.01094574760645628
v -2.8085816666134633E-05 -0.00751507747918367 0.01043717842549085
v -2.821613452397287E-05 -0.00754994759336113 0.0101500004529953
v -2.8085816666134633E-05 -0.00751507747918367 0.00986282154917717
v 2.7702360966941342E-05 0.00741249555721879 -0.00959233194589614
v 2.8216054488439113E-05 0.00754994759336113 -0.0101500004529953
v 2.7702360966941342E-05 0.00741249555721879 -0.01070766802877187
v -2.8085816666134633E-05 -0.00751507747918367 -0.01043717842549085
v -2.7088286515208893E-05 -0.00724816229194402 -0.01094574760645628
v -2.3190890715341084E-05 -0.00620531290769577 0.01134125050157308
v 1.9377015632926486E-05 0.00518483342602849 0.00986282154917717
v 1.9246699594077654E-05 0.00514996424317359 0.0101500004529953
v 1.9377015632926486E-05 0.00518483342602849 0.01043717842549085
v 2.037454760284163E-05 0.00545174907892942 0.01094574760645628
v 1.9377015632926486E-05 0.00518483342602849 -0.00986282154917717
v 2.037454760284163E-05 0.00545174907892942 -0.00935425236821174
v -2.1183868739171885E-05 -0.00566828250885009 0.00916241947561502
v 2.2141086446936242E-05 0.00592443253844976 -0.00902798026800155
v -1.9760471332119778E-05 -0.00528741581365466 0.00959233194589614
v 2.6278963559889235E-05 0.00703162886202335 -0.011137580499053
v 2.4271945221698843E-05 0.00649459892883896 -0.01134125050157308
v -2.5321745852124877E-05 -0.0067754783667624 -0.01127201970666647
v -2.3190890715341084E-05 -0.00620531290769577 -0.01134125050157308
v -2.1183868739171885E-05 -0.00566828250885009 -0.011137580499053
v -1.9760471332119778E-05 -0.00528741581365466 -0.01070766802877187
v -1.924677962961141E-05 -0.00514996424317359 -0.0101500004529953
v -1.9760471332119778E-05 -0.00528741581365466 -0.00959233194589614
v 2.2141086446936242E-05 0.00592443253844976 0.01127201970666647
v 2.4271945221698843E-05 0.00649459892883896 0.01134125050157308
v 2.6278963559889235E-05 0.00703162886202335 0.011137580499053
v 2.4271945221698843E-05 0.00649459892883896 -0.00895874947309494
v 2.6278963559889235E-05 0.00703162886202335 0.00916241947561502
v 2.7702360966941342E-05 0.00741249555721879 0.00959233194589614
v 2.8216054488439113E-05 0.00754994759336113 0.0101500004529953
v 2.7702360966941342E-05 0.00741249555721879 0.01070766802877187
v -0.00157571688760072 0.00650057848542928 0.00895874947309494
v -0.0015737097710371 0.00703760841861367 0.00916241947561502
v -0.00157228647731244 0.0074184751138091 0.00959233194589614
v -0.00157177273649722 0.00755592714995145 0.0101500004529953
v -0.00157228647731244 0.0074184751138091 0.01070766802877187
v -0.00157961423974484 0.00545772863551974 0.01094574760645628
v -0.00157784775365144 0.00593041209504008 0.01127201970666647
v -0.00157571688760072 0.00650057848542928 0.01134125050157308
v -0.0015737097710371 0.00703760841861367 0.011137580499053
v -0.00162707711569964 -0.0072421827353537 0.00935425236821174
v -0.00162531051319092 -0.00676949881017208 0.00902798026800155
v -0.0016211726469919 -0.00566230295225977 -0.00916241947561502
v -0.00157784775365144 0.00593041209504008 0.00902798026800155
v -0.00157961423974484 0.00545772863551974 -0.00935425236821174
v -0.00157961423974484 0.00545772863551974 0.00935425236821174
v -0.0016231796471402 -0.00619933335110545 0.00895874947309494
v -0.0016231796471402 -0.00619933335110545 -0.00895874947309494
v -0.00162531051319092 -0.00676949881017208 -0.00902798026800155
v -0.00162707711569964 -0.0072421827353537 -0.00935425236821174
v -0.00157961423974484 0.00545772863551974 -0.01094574760645628
v -0.00157784775365144 0.00593041209504008 -0.01127201970666647
v -0.00157571688760072 0.00650057848542928 -0.01134125050157308
v -0.0015737097710371 0.00703760841861367 -0.011137580499053
v -0.00157228647731244 0.0074184751138091 -0.01070766802877187
v -0.00157177273649722 0.00755592714995145 -0.0101500004529953
v -0.00157228647731244 0.0074184751138091 -0.00959233194589614
v -0.0015737097710371 0.00703760841861367 -0.00916241947561502
v -0.00157571688760072 0.00650057848542928 -0.00895874947309494
v -0.00157784775365144 0.00593041209504008 -0.00902798026800155
v -0.00161974923685193 -0.00528143625706434 -0.00959233194589614
v -0.00161923561245203 -0.00514398468658328 -0.0101500004529953
v -0.00158061180263757 0.0051908129826188 -0.00986282154917717
v -0.0016211726469919 -0.00566230295225977 0.00916241947561502
v -0.00161974923685193 -0.00528143625706434 0.00959233194589614
v -0.00158061180263757 0.0051908129826188 0.00986282154917717
v -0.00161923561245203 -0.00514398468658328 0.0101500004529953
v -0.0015807420713827 0.00515594379976391 0.0101500004529953
v -0.00158061180263757 0.0051908129826188 0.01043717842549085
v -0.00161974923685193 -0.00528143625706434 0.01070766802877187
v -0.0016211726469919 -0.00566230295225977 0.011137580499053
v -0.0016231796471402 -0.00619933335110545 0.01134125050157308
v -0.00162531051319092 -0.00676949881017208 0.01127201970666647
v -0.00162707711569964 -0.0072421827353537 0.01094574760645628
v -0.00162807456217706 -0.00750909792259335 0.00986282154917717
v -0.00162531051319092 -0.00676949881017208 -0.01127201970666647
v -0.00162707711569964 -0.0072421827353537 -0.01094574760645628
v -0.00162807456217706 -0.00750909792259335 -0.01043717842549085
v -0.0016282049473375 -0.00754396803677082 -0.0101500004529953
v -0.00162807456217706 -0.00750909792259335 -0.00986282154917717
v -0.0015807420713827 0.00515594379976391 -0.0101500004529953
v -0.00158061180263757 0.0051908129826188 -0.01043717842549085
v -0.00161974923685193 -0.00528143625706434 -0.01070766802877187
v -0.0016211726469919 -0.00566230295225977 -0.011137580499053
v -0.0016231796471402 -0.00619933335110545 -0.01134125050157308
v -0.00162807456217706 -0.00750909792259335 0.01043717842549085
v -0.0016282049473375 -0.00754396803677082 0.0101500004529953
# 160 vertices

vn -0.00369121972471475 -0.98768150806427008 -0.15643411874771118
vn -0.00332989799790084 -0.89100050926208496 -0.45399010181427
vn -0.00264261895790696 -0.70710122585296632 -0.70710742473602296
vn -0.00169666681904345 -0.453987181186676 -0.891006588935852
vn -0.00058463460300117 -0.15643414855003356 -0.9876882433891296
vn -0.00058463460300117 -0.15643414855003356 0.9876882433891296
vn -0.00169666681904345 -0.453987181186676 0.891006588935852
vn -0.00264261895790696 -0.70710122585296632 0.70710742473602296
vn -0.00332989799790084 -0.89100050926208496 0.45399010181427
vn -0.00369121972471475 -0.98768150806427008 0.15643411874771118
vn 0.00369121972471475 0.98768150806427008 0.15643411874771118
vn 0.00332989799790084 0.89100050926208496 0.45399010181427
vn 0.00264261895790696 0.70710122585296632 0.70710742473602296
vn 0.00169666681904345 0.453987181186676 0.891006588935852
vn 0.00058463460300117 0.15643414855003356 0.9876882433891296
vn 0.00369121972471475 0.98768150806427008 -0.15643411874771118
vn 0.00332989799790084 0.89100050926208496 -0.45399010181427
vn 0.00264261895790696 0.70710122585296632 -0.70710742473602296
vn 0.00169666681904345 0.453987181186676 -0.891006588935852
vn 0.00058463460300117 0.15643414855003356 -0.9876882433891296
vn 0.99999302625656128 -0.0037372310180217 0
vn -0.99999302625656128 0.0037372310180217 0
vn 0 0 -1
vn 0.0037372310180217 0.99999302625656128 0
vn 0 0 1
vn -0.0037372310180217 -0.99999302625656128 0
vn -0.00362863345071673 -0.97093492746353152 0.23931607604026796
vn -0.00279735657386481 -0.74850529432296752 0.66312295198440552
vn -0.00132524035871028 -0.35460242629051208 0.93501621484756464
vn 0.00045047092135064304 0.12053516507148742 0.99270898103713984
vn 0.00212298915721476 0.56806081533432008 0.82298386096954352
vn 0.00330915418453514 0.88544994592666624 0.46472293138504032
vn 0.0037099823821336 0.99270194768905632 0.1205364391207695
vn 0.00370998261496424 0.99270200729370112 -0.12053605169057846
vn 0.00330915418453514 0.88544994592666624 -0.46472293138504032
vn 0.00212298915721476 0.56806081533432008 -0.82298386096954352
vn 0.00045047092135064304 0.12053516507148742 -0.99270898103713984
vn -0.00132524035871028 -0.35460242629051208 -0.93501621484756464
vn -0.00279735657386481 -0.74850529432296752 -0.66312295198440552
vn -0.00362863391637802 -0.97093504667282112 -0.23931570351123808
vn -0.00362863391637802 -0.97093504667282112 0.23931570351123808
vn 0.00370998261496424 0.99270200729370112 0.12053605169057846
vn 0.0037099823821336 0.99270194768905632 -0.1205364391207695
vn -0.00362863345071673 -0.97093492746353152 -0.23931607604026796
vn -0.00362863461486995 -0.97093522548675536 0.2393149435520172
vn -0.00132523942738771 -0.3546021282672882 0.93501633405685424
vn 0.0004504712705966085 0.12053526192903518 0.99270892143249504
vn 0.00212298776023089 0.56806039810180664 0.82298409938812256
vn 0.00330915534868836 0.88545030355453488 0.46472227573394776
vn 0.00370998191647231 0.99270182847976688 0.1205376386642456
vn 0.00370998168364167 0.99270176887512208 -0.12053802609443664
vn 0.00330915534868836 0.88545030355453488 -0.46472227573394776
vn 0.00212298776023089 0.56806039810180664 -0.82298409938812256
vn 0.0004504712705966085 0.12053526192903518 -0.99270892143249504
vn -0.00132523942738771 -0.3546021282672882 -0.93501633405685424
vn -0.00362863414920866 -0.97093510627746576 -0.23931531608104704
vn -0.00362863414920866 -0.97093510627746576 0.23931531608104704
vn 0.00370998168364167 0.99270176887512208 0.12053802609443664
vn 0.00370998191647231 0.99270182847976688 -0.1205376386642456
vn -0.00362863461486995 -0.97093522548675536 -0.2393149435520172
# 60 vertex normals

g obj_38518416
s 1
f 1//1 2//1 3//1
f 1//1 3//1 4//1
f 4//2 3//2 5//2
f 4//2 5//2 6//2
f 6//3 5//3 7//3
f 6//3 7//3 8//3
f 8//4 7//4 9//4
f 8//4 9//4 10//4
f 10//5 9//5 11//5
f 10//5 11//5 12//5
f 13//6 14//6 15//6
f 13//6 15//6 16//6
f 16//7 15//7 17//7
f 16//7 17//7 18//7
f 18//8 17//8 19//8
f 18//8 19//8 20//8
f 20//9 19//9 21//9
f 20//9 21//9 22//9
f 22//10 21//10 23//10
f 22//10 23//10 24//10
f 25//11 26//11 27//11
f 25//11 27//11 28//11
f 28//12 27//12 29//12
f 28//12 29//12 30//12
f 30//13 29//13 31//13
f 30//13 31//13 32//13
f 32//14 31//14 33//14
f 32//14 33//14 34//14
f 34//15 33//15 35//15
f 34//15 35//15 36//15
f 37//16 38//16 39//16
f 37//16 39//16 40//16
f 40//17 39//17 41//17
f 40//17 41//17 42//17
f 42//18 41//18 43//18
f 42//18 43//18 44//18
f 44//19 43//19 45//19
f 44//19 45//19 46//19
f 46//20 45//20 47//20
f 46//20 47//20 48//20
f 49//21 50//21 51//21
f 1//21 52//21 53//21
f 49//21 54//21 50//21
f 50//21 54//21 55//21
f 50//21 55//21 56//21
f 1//21 53//21 24//21
f 38//21 25//21 57//21
f 58//21 59//21 60//21
f 53//21 61//21 24//21
f 24//21 61//21 62//21
f 24//21 62//21 63//21
f 60//21 64//21 58//21
f 58//21 64//21 65//21
f 58//21 65//21 66//21
f 66//21 65//21 67//21
f 66//21 67//21 62//21
f 62//21 67//21 68//21
f 62//21 68//21 63//21
f 69//21 18//21 70//21
f 70//21 18//21 20//21
f 70//21 20//21 71//21
f 71//21 20//21 22//21
f 71//21 22//21 72//21
f 72//21 22//21 24//21
f 72//21 24//21 73//21
f 73//21 24//21 63//21
f 57//21 74//21 38//21
f 38//21 74//21 75//21
f 38//21 75//21 39//21
f 39//21 75//21 76//21
f 39//21 76//21 41//21
f 52//21 1//21 77//21
f 77//21 1//21 4//21
f 77//21 4//21 78//21
f 79//21 13//21 69//21
f 69//21 13//21 16//21
f 69//21 16//21 18//21
f 51//21 80//21 49//21
f 49//21 80//21 81//21
f 49//21 81//21 79//21
f 79//21 81//21 82//21
f 79//21 82//21 13//21
f 13//21 82//21 83//21
f 13//21 83//21 36//21
f 65//21 84//21 67//21
f 67//21 84//21 85//21
f 67//21 85//21 86//21
f 86//21 85//21 87//21
f 86//21 87//21 88//21
f 88//21 87//21 55//21
f 41//21 76//21 43//21
f 43//21 76//21 89//21
f 43//21 89//21 45//21
f 45//21 89//21 90//21
f 45//21 90//21 47//21
f 4//21 6//21 78//21
f 78//21 6//21 8//21
f 78//21 8//21 91//21
f 91//21 8//21 10//21
f 91//21 10//21 92//21
f 92//21 10//21 12//21
f 92//21 12//21 93//21
f 93//21 12//21 47//21
f 93//21 47//21 94//21
f 94//21 47//21 90//21
f 94//21 90//21 95//21
f 95//21 90//21 59//21
f 95//21 59//21 96//21
f 96//21 59//21 58//21
f 83//21 97//21 36//21
f 36//21 97//21 98//21
f 36//21 98//21 34//21
f 34//21 98//21 99//21
f 55//21 87//21 56//21
f 56//21 87//21 100//21
f 56//21 100//21 101//21
f 101//21 100//21 57//21
f 101//21 57//21 102//21
f 102//21 57//21 25//21
f 102//21 25//21 103//21
f 103//21 25//21 28//21
f 103//21 28//21 104//21
f 104//21 28//21 30//21
f 104//21 30//21 99//21
f 99//21 30//21 32//21
f 99//21 32//21 34//21
f 37//22 105//22 106//22
f 37//22 106//22 26//22
f 106//22 107//22 26//22
f 26//22 107//22 108//22
f 26//22 108//22 27//22
f 27//22 108//22 109//22
f 110//22 14//22 111//22
f 111//22 14//22 35//22
f 111//22 35//22 112//22
f 112//22 35//22 33//22
f 112//22 33//22 113//22
f 113//22 33//22 31//22
f 113//22 31//22 109//22
f 109//22 31//22 29//22
f 109//22 29//22 27//22
f 114//22 115//22 116//22
f 117//22 118//22 119//22
f 119//22 118//22 120//22
f 121//22 122//22 23//22
f 23//22 122//22 123//22
f 23//22 123//22 2//22
f 124//22 125//22 48//22
f 48//22 125//22 126//22
f 48//22 126//22 46//22
f 46//22 126//22 127//22
f 46//22 127//22 44//22
f 44//22 127//22 42//22
f 42//22 127//22 128//22
f 42//22 128//22 40//22
f 40//22 128//22 129//22
f 40//22 129//22 37//22
f 37//22 129//22 130//22
f 37//22 130//22 105//22
f 130//22 131//22 105//22
f 105//22 131//22 132//22
f 105//22 132//22 117//22
f 117//22 132//22 133//22
f 117//22 133//22 118//22
f 116//22 115//22 134//22
f 134//22 115//22 120//22
f 134//22 120//22 135//22
f 135//22 120//22 118//22
f 135//22 118//22 136//22
f 120//22 137//22 119//22
f 119//22 137//22 138//22
f 119//22 138//22 139//22
f 139//22 138//22 140//22
f 139//22 140//22 141//22
f 141//22 140//22 142//22
f 142//22 140//22 143//22
f 142//22 143//22 110//22
f 110//22 143//22 144//22
f 110//22 144//22 14//22
f 14//22 144//22 145//22
f 14//22 145//22 15//22
f 15//22 145//22 146//22
f 15//22 146//22 17//22
f 17//22 146//22 147//22
f 17//22 147//22 19//22
f 121//22 23//22 116//22
f 116//22 23//22 148//22
f 116//22 148//22 114//22
f 149//22 7//22 150//22
f 150//22 7//22 5//22
f 150//22 5//22 151//22
f 151//22 5//22 3//22
f 151//22 3//22 152//22
f 152//22 3//22 2//22
f 152//22 2//22 153//22
f 153//22 2//22 123//22
f 136//22 154//22 135//22
f 135//22 154//22 155//22
f 135//22 155//22 156//22
f 156//22 155//22 124//22
f 156//22 124//22 157//22
f 157//22 124//22 48//22
f 157//22 48//22 158//22
f 158//22 48//22 11//22
f 158//22 11//22 149//22
f 149//22 11//22 9//22
f 149//22 9//22 7//22
f 19//22 147//22 21//22
f 21//22 147//22 159//22
f 21//22 159//22 23//22
f 23//22 159//22 160//22
f 23//22 160//22 148//22
f 11//23 48//23 12//23
f 12//23 48//23 47//23
f 25//24 38//24 26//24
f 26//24 38//24 37//24
f 13//25 36//25 14//25
f 14//25 36//25 35//25
f 1//26 24//26 2//26
f 2//26 24//26 23//26
f 75//27 129//27 76//27
f 76//27 129//27 128//27
f 76//28 128//28 89//28
f 89//28 128//28 127//28
f 89//29 127//29 90//29
f 90//29 127//29 126//29
f 90//30 126//30 59//30
f 59//30 126//30 125//30
f 59//31 125//31 60//31
f 60//31 125//31 124//31
f 60//32 124//32 64//32
f 64//32 124//32 155//32
f 64//33 155//33 65//33
f 65//33 155//33 154//33
f 65//34 154//34 84//34
f 84//34 154//34 136//34
f 84//35 136//35 85//35
f 85//35 136//35 118//35
f 85//36 118//36 87//36
f 87//36 118//36 133//36
f 87//37 133//37 100//37
f 100//37 133//37 132//37
f 100//38 132//38 57//38
f 57//38 132//38 131//38
f 57//39 131//39 74//39
f 74//39 131//39 130//39
f 74//40 130//40 75//40
f 75//40 130//40 129//40
f 103//41 108//41 102//41
f 102//41 108//41 107//41
f 102//28 107//28 101//28
f 101//28 107//28 106//28
f 101//29 106//29 56//29
f 56//29 106//29 105//29
f 56//30 105//30 50//30
f 50//30 105//30 117//30
f 50//31 117//31 51//31
f 51//31 117//31 119//31
f 51//32 119//32 80//32
f 80//32 119//32 139//32
f 80//42 139//42 81//42
f 81//42 139//42 141//42
f 81//43 141//43 82//43
f 82//43 141//43 142//43
f 82//35 142//35 83//35
f 83//35 142//35 110//35
f 83//36 110//36 97//36
f 97//36 110//36 111//36
f 97//37 111//37 98//37
f 98//37 111//37 112//37
f 98//38 112//38 99//38
f 99//38 112//38 113//38
f 99//39 113//39 104//39
f 104//39 113//39 109//39
f 104//44 109//44 103//44
f 103//44 109//44 108//44
f 55//45 140//45 88//45
f 88//45 140//45 138//45
f 88//28 138//28 86//28
f 86//28 138//28 137//28
f 86//46 137//46 67//46
f 67//46 137//46 120//46
f 67//47 120//47 68//47
f 68//47 120//47 115//47
f 68//48 115//48 63//48
f 63//48 115//48 114//48
f 63//49 114//49 73//49
f 73//49 114//49 148//49
f 73//50 148//50 72//50
f 72//50 148//50 160//50
f 72//51 160//51 71//51
f 71//51 160//51 159//51
f 71//52 159//52 70//52
f 70//52 159//52 147//52
f 70//53 147//53 69//53
f 69//53 147//53 146//53
f 69//54 146//54 79//54
f 79//54 146//54 145//54
f 79//55 145//55 49//55
f 49//55 145//55 144//55
f 49//39 144//39 54//39
f 54//39 144//39 143//39
f 54//56 143//56 55//56
f 55//56 143//56 140//56
f 95//57 135//57 94//57
f 94//57 135//57 156//57
f 94//28 156//28 93//28
f 93//28 156//28 157//28
f 93//46 157//46 92//46
f 92//46 157//46 158//46
f 92//47 158//47 91//47
f 91//47 158//47 149//47
f 91//48 149//48 78//48
f 78//48 149//48 150//48
f 78//49 150//49 77//49
f 77//49 150//49 151//49
f 77//58 151//58 52//58
f 52//58 151//58 152//58
f 52//59 152//59 53//59
f 53//59 152//59 153//59
f 53//52 153//52 61//52
f 61//52 153//52 123//52
f 61//53 123//53 62//53
f 62//53 123//53 122//53
f 62//54 122//54 66//54
f 66//54 122//54 121//54
f 66//55 121//55 58//55
f 58//55 121//55 116//55
f 58//39 116//39 96//39
f 96//39 116//39 134//39
f 96//60 134//60 95//60
f 95//60 134//60 135//60
#332 polygons

